<?xml version="1.0" encoding="iso-8859-1"?>
<!-- Generator: Adobe Illustrator 16.0.0, SVG Export Plug-In . SVG Version: 6.00 Build 0)  -->
<!DOCTYPE svg PUBLIC "-//W3C//DTD SVG 1.1//EN" "http://www.w3.org/Graphics/SVG/1.1/DTD/svg11.dtd">
<svg version="1.1" id="Capa_1" xmlns="http://www.w3.org/2000/svg" xmlns:xlink="http://www.w3.org/1999/xlink" x="0px" y="0px"
	 width="510px" height="510px" viewBox="0 0 510 510" style="enable-background:new 0 0 510 510;" xml:space="preserve">
<g>
	<g id="directions">
		<path d="M502.35,237.149l-229.5-229.5l0,0c-10.199-10.2-25.5-10.2-35.7,0l-229.5,229.5c-10.2,10.2-10.2,25.501,0,35.7l229.5,229.5
			l0,0c10.2,10.2,25.501,10.2,35.7,0l229.5-229.5C512.55,262.65,512.55,247.35,502.35,237.149z M306,318.75V255H204v76.5h-51v-102
			c0-15.3,10.2-25.5,25.5-25.5H306v-63.75l89.25,89.25L306,318.75z"/>
	</g>
</g>
<g>
</g>
<g>
</g>
<g>
</g>
<g>
</g>
<g>
</g>
<g>
</g>
<g>
</g>
<g>
</g>
<g>
</g>
<g>
</g>
<g>
</g>
<g>
</g>
<g>
</g>
<g>
</g>
<g>
</g>
</svg>
