<?xml version="1.0" encoding="iso-8859-1"?>
<!-- Generator: Adobe Illustrator 19.0.0, SVG Export Plug-In . SVG Version: 6.00 Build 0)  -->
<svg version="1.1" id="Capa_1" xmlns="http://www.w3.org/2000/svg" xmlns:xlink="http://www.w3.org/1999/xlink" x="0px" y="0px"
	 viewBox="0 0 394.667 394.667" style="enable-background:new 0 0 394.667 394.667;" xml:space="preserve">
<g>
	<g>
		<g>
			<path d="M32,37.333c-17.707,0-32,14.293-32,32s14.293,32,32,32s32-14.293,32-32S49.707,37.333,32,37.333z"/>
			<path d="M32,165.333c-17.707,0-32,14.293-32,32s14.293,32,32,32s32-14.293,32-32S49.707,165.333,32,165.333z"/>
			<path d="M32,293.333c-17.813,0-32,14.4-32,32c0,17.6,14.4,32,32,32c17.6,0,32-14.4,32-32C64,307.733,49.813,293.333,32,293.333z"
				/>
			<rect x="96" y="304" width="298.667" height="42.667"/>
			<rect x="96" y="48" width="298.667" height="42.667"/>
			<rect x="96" y="176" width="298.667" height="42.667"/>
		</g>
	</g>
</g>
<g>
</g>
<g>
</g>
<g>
</g>
<g>
</g>
<g>
</g>
<g>
</g>
<g>
</g>
<g>
</g>
<g>
</g>
<g>
</g>
<g>
</g>
<g>
</g>
<g>
</g>
<g>
</g>
<g>
</g>
</svg>
