<?xml version="1.0" encoding="iso-8859-1"?>
<!-- Generator: Adobe Illustrator 19.0.0, SVG Export Plug-In . SVG Version: 6.00 Build 0)  -->
<svg version="1.1" id="Capa_1" xmlns="http://www.w3.org/2000/svg" xmlns:xlink="http://www.w3.org/1999/xlink" x="0px" y="0px"
	 viewBox="0 0 416 416" style="enable-background:new 0 0 416 416;" xml:space="preserve">
<g>
	<g>
		<g fill="#982137">
			<path d="M382.933,175.467H425.6C422.4,107.093,388.693,46.933,337.6,8l-30.4,30.4C350.507,69.44,379.627,118.933,382.933,175.467
				z"/>
			<path d="M118.507,38.507L88,8C36.907,46.933,3.2,107.093,0,175.467h42.667C45.973,118.933,75.093,69.44,118.507,38.507z"/>
			<path d="M208,416c23.573,0,42.667-19.093,42.667-42.667h-85.333C165.333,396.907,184.427,416,208,416z"/>
			<path d="M336,288V181.333c0-65.6-34.88-120.32-96-134.827V32c0-17.707-14.293-32-32-32s-32,14.293-32,32v14.507
				c-61.12,14.507-96,69.227-96,134.827V288l-42.667,42.667V352h341.333v-21.333L336,288z M261.333,155.733L201.6,228.267h59.733
				v38.4H154.667v-38.4l59.733-72.533h-59.733v-38.4h106.667V155.733z"/>
		</g>
	</g>
</g>
</svg>
